# xmcd CD database file
#
# Track frame offsets:
#	150
#	5280
#	12680
#	20164
#	27598
#	34449
#	41691
#	48383
#	55608
#	62680
#	71243
#	79457
#	88433
#	95063
#	103847
#	115213
#	125027
#	134155
#	140323
#	147355
#	153076
#	160570
#	170836
#	177975
#	188135
#	197973
#	204534
#	212010
#	220675
#	227564
#	240818
#	250900
#	258097
#	265212
#	272768
#	279858
#	285320
#	292983
#	300415
#	306209
#
# Disc length: 4163 seconds
#
# Revision: 0
# Processed by: cddbd v1.5.2PL0 Copyright (c) Steve Scherf et al.
# Submitted via: CDex 1.70beta3
#
DISCID=58104128
DTITLE=MAX - J-POPハリケーン ～MAXだけ60分本気MIX～
DYEAR=2011
DGENRE=VISION FACTORY
TTITLE0=Give me a Shake
TTITLE1=恋するヴェルファーレダンス ～Saturday Night～
TTITLE2=Seventies
TTITLE3=Kiss me Kiss me, Baby
TTITLE4=LOVE LOVE FIRE
TTITLE5=EXTASY
TTITLE6=STRANGER IN THE NIGHT
TTITLE7=GET MY LOVE!
TTITLE8=CAT'S EYE
TTITLE9=一緒に・・・
TTITLE10=あの夏へと
TTITLE11=Be With You
TTITLE12=Love impact
TTITLE13=always love
TTITLE14=ニライカナイ (kariyushi remix)
TTITLE15=SPLASH GOLD -夏の奇蹟-
TTITLE16=Spring rain
TTITLE17=Feel so right
TTITLE18=Ride on time
TTITLE19=銀河の誓い
TTITLE20=Nobody else
TTITLE21=Shinin'on-Shinin'love
TTITLE22=Love is Dreaming
TTITLE23=Easy Easy
TTITLE24=閃光-ひかり-のVEIL
TTITLE25=MAGIC
TTITLE26=Perfect Love
TTITLE27=eternal white
TTITLE28=moonlight
TTITLE29=あなたを想うほど
TTITLE30=Grace of my heart
TTITLE31=Never gonna stop it
TTITLE32=LOVE SCREW
TTITLE33=ラフカット ダイアモンド
TTITLE34=Festa
TTITLE35=バラ色の日々
TTITLE36=SO REAL
TTITLE37=the Power Of Love
TTITLE38=BROKE HEART
TTITLE39=TORA TORA TORA
EXTD=YEAR: 2011
EXTT0=
EXTT1=
EXTT2=
EXTT3=
EXTT4=
EXTT5=
EXTT6=
EXTT7=
EXTT8=
EXTT9=
EXTT10=
EXTT11=
EXTT12=
EXTT13=
EXTT14=
EXTT15=
EXTT16=
EXTT17=
EXTT18=
EXTT19=
EXTT20=
EXTT21=
EXTT22=
EXTT23=
EXTT24=
EXTT25=
EXTT26=
EXTT27=
EXTT28=
EXTT29=
EXTT30=
EXTT31=
EXTT32=
EXTT33=
EXTT34=
EXTT35=
EXTT36=
EXTT37=
EXTT38=
EXTT39=
PLAYORDER=
